<!DOCTYPE svg PUBLIC "-//W3C//DTD SVG 1.1//EN" "http://www.w3.org/Graphics/SVG/1.1/DTD/svg11.dtd">
<svg xmlns="http://www.w3.org/2000/svg" viewBox="0 0 505 508">
<path fill="#fbfbfb" stroke="#fbfbfb" d="M235 57.624C121.049 68.25 35.968 161.121 36.005 274.842 36.036 368.304 96.354 452.088 184 480.413c129.47 41.84 264.474-43.708 281.544-178.405 12.831-101.244-45.858-198.623-140.044-232.37-26.834-9.614-63.722-14.511-90.5-12.014m-2.283 18.493C105.995 88.328 23.73 216.716 64.736 338.278c4.423 13.111 4.503 13.065 10.034-5.778 6.546-22.297 6.571-22.502 8.211-66.5 1.134-30.425 3.128-37.315 13.594-46.962 10.22-9.421 27.505-11.337 51.222-5.678 13.533 3.228 31.501 4.82 55.203 4.89 20.91.062 30.957-1.564 45.286-7.327 16.919-6.804 31.643-8.22 45.146-4.34 8.957 2.574 18.495.966 21.346-3.599 1.494-2.393 1.455-2.397-3.37-.381-9.726 4.064-30.408-6.52-30.408-15.561 0-8.642 17.619-16.144 29.898-12.73 13.081 3.637 14.788.78 5.329-8.917-7.116-7.295-9.493-12.067-10.039-20.155-.775-11.485 3.897-16.542 7.227-7.823 4.942 12.94 17.925 20.132 29.085 16.112 5.383-1.94 15.67-1.893 21.99.099 7.021 2.214 11.048.347 16.776-7.775 4.533-6.428 6.283-7.17 7.759-3.288 2.329 6.127-.311 15.069-5.979 20.245l-3.033 2.771 5.449 5.381 5.449 5.381 3.91-1.171c12.909-3.868 21.934.402 18.578 8.789-1.493 3.731-10.422 13.039-12.507 13.039-5.552 0 11.456 24.891 21.619 31.639 11.178 7.421 8.986 20.341-4.824 28.431-5.133 3.008-5.296 3.033-15.687 2.42-6.661-.392-12.328-.193-15.5.544-2.75.64-9.24 1.5-14.423 1.912-8.771.698-9.582.949-11.72 3.631-3.737 4.687-9.109 23.384-10.847 37.752-4.512 37.319-34.835 71.107-57.01 63.523l-4-1.368.031-7.992c.016-4.396.316-10.692.665-13.992l.635-6-2.067 4.5c-3.611 7.859-4.703 14.086-5.35 30.5-.405 10.296-1.492 20.526-3.047 28.695-2.332 12.242-2.239 30.968.173 34.869.485.786 13.303 1.435 13.539.686 1.476-4.697.81-30.252-1.022-39.2-1.68-8.201-2.014-12.215-1.474-17.699l.699-7.093 5.109.595c3.083.359 7.489.024 11.109-.844 3.3-.791 6.35-1.454 6.778-1.473 1.092-.05-.093 12.126-1.981 20.355-2.98 12.984-.514 33.246 5.262 43.242 2.944 5.095 1.881 4.716 20.787 7.409l15.682 2.233 7.236-4.798c40.367-26.762 69.582-67.465 81.122-113.02 6.468-25.532 8.233-59.613 4.354-84.042C430.266 138.677 336.839 66.083 232.717 76.117m126.729 119.97c-1.087 1.759 1.068 3.104 5.837 3.641 5.465.616 6.929-1.05 2.799-3.185-3.47-1.795-7.671-2.017-8.636-.456M92.045 308.5c-.519 23.519-3.101 40.664-8.658 57.476l-2.619 7.925 3.235 5.3c4.642 7.602 14.346 20.727 15.353 20.766 1.004.039.016-14.609-1.852-27.467-.873-6.011-1.019-10.798-.44-14.412 2.911-18.174 1.933-31.858-3.509-49.088l-1.421-4.5-.089 4m61.034 6.866c-.043 1.027-6.574 14.527-14.512 30-17.037 33.209-16.922 32.788-16.413 60.211l.346 18.654 4.5 4.034c2.475 2.218 8.55 6.717 13.5 9.996l9 5.963 7.337-.607c9.545-.789 9.459-.686 6.186-7.374-1.546-3.159-3.571-9.343-4.5-13.743-1.968-9.317-8.713-26.87-15.652-40.732-6.468-12.921-6.374-18.851.536-33.764 5.281-11.4 7.862-11.579 26.209-1.821l8.116 4.317-6.84 12c-8.139 14.279-8.168 14.576-2.901 29.851 7.853 22.775 17.451 41.272 23.46 45.209 2.125 1.392 62.188.399 64.562-1.068 2.377-1.469 3.615-32.233 1.536-38.152-.935-2.662-2.106-9.637-2.602-15.499-.763-9.011-1.896-13.652-7.324-30-3.532-10.638-6.639-20.241-6.906-21.341-.267-1.1-.537.493-.601 3.54-.064 3.047.559 8.131 1.384 11.299.825 3.167 1.5 5.894 1.5 6.061 0 .166-10.326.621-22.946 1.012-26.709.828-25.611 1.081-46.967-10.822-6.562-3.658-14.217-7.194-17.009-7.857-4.706-1.118-6.38-2.81-4.146-4.191 1.801-1.113 3.4-11.064 2.276-14.156-.712-1.958-1.075-2.286-1.129-1.02" fill-rule="evenodd"/>
<path fill="#f7f7f6" stroke="#f7f7f6" d="M236.5 57.997C116.634 66.157 24.596 175.602 36.937 295.302 52.608 447.297 212.335 535.967 348 467.983c112.27-56.259 153.314-199.064 88.218-306.939C394.403 91.748 318.207 52.435 236.5 57.997m-1 17.618C105.432 89.145 24.015 213.292 64.165 336.872c4.857 14.949 4.92 14.927 10.714-3.872 6.669-21.636 7.132-24.829 8.166-56.294 1.03-31.339 2.184-39.682 6.615-47.822 9.896-18.182 28.395-22.775 59.84-14.856 4.827 1.216 16.33 2.637 29 3.584 33.895 2.532 52.002.797 70.8-6.781 16.6-6.693 33.801-8.165 45.121-3.861 6.346 2.413 19.574.091 21.025-3.691.875-2.28.438-2.35-4.372-.692-7.921 2.729-23.361-3.272-28.466-11.062-6.924-10.568 14.865-21.896 31.062-16.15 10.245 3.635 11.139-1.463 1.97-11.226-7.195-7.66-9.006-11.861-8.94-20.727.069-9.153 4.234-14.551 5.784-7.497 1.283 5.843 8.058 13.69 14.674 16.996 7.035 3.515 8.878 3.699 14.966 1.494 5.477-1.984 17.993-2.046 23.376-.117 6.296 2.257 9.605.461 16.665-9.048 4.673-6.293 5.401-6.429 6.939-1.299 1.65 5.51-.366 12.293-5.218 17.557l-3.723 4.039 5.295 5.51 5.294 5.509 4.874-1.264c10.659-2.763 18.374-.665 18.374 4.997 0 4.25-4.479 10.666-9.992 14.315-2.205 1.458-4.008 3.373-4.008 4.255 0 5.648 14.033 24.292 22.528 29.931 7.806 5.181 8.968 11.015 3.937 19.77-4.926 8.573-12.465 11.8-25.448 10.892-7.033-.492-11.528-.248-17.225.936-4.239.881-10.327 1.602-13.527 1.602-6.596 0-9.434 1.493-11.898 6.256-3.431 6.635-7.47 22.134-8.856 33.982-1.888 16.142-3.031 19.303-13.736 37.992-11.664 20.362-31.264 31.603-45.162 25.9l-2.887-1.185.614-8.722c.337-4.798.904-10.973 1.259-13.723.902-6.998-.822-4.92-4.134 4.981-2.322 6.943-2.73 10.061-3.134 24-.332 11.428-1.19 19.745-2.992 29.019-2.496 12.84-2.669 21.549-.663 33.291l.562 3.292 7.131-.292 7.131-.291.298-3.5c.952-11.163.39-27.112-1.182-33.538-1.157-4.731-1.609-10.006-1.41-16.462l.294-9.5 5 .268c4.354.234 13.563-1.087 17.136-2.459 1.453-.557.856 8.715-1.236 19.191-2.848 14.261-1.183 32.075 3.945 42.194 3.33 6.571 4.235 7.178 12.27 8.221 3.787.492 10.854 1.483 15.706 2.201 10.617 1.571 11.462 1.234 27.773-11.091 123.168-93.063 94.284-289.291-50.686-344.353C296.734 78.3 259.679 73.1 235.5 75.615m123.906 120.537c-1.092 1.767 2.545 3.848 6.726 3.848 4.597 0 5.641-1.345 2.662-3.432-2.612-1.829-8.357-2.084-9.388-.416M92.019 305.5c-.038.55-.489 8.65-1.002 18-.966 17.599-4.357 35.122-8.804 45.5l-1.928 4.5 3.473 5.5c5.614 8.892 14.495 21 15.403 21 1.365 0 .974-11.658-.805-24-1.396-9.687-1.475-13.077-.501-21.5 1.638-14.162 1.398-23.705-.841-33.5-1.9-8.308-4.858-17.49-4.995-15.5m60.527 11.177c-.389 1.553-6.76 14.443-14.158 28.644-16.596 31.861-16.647 32.049-16.21 59.026l.322 19.911 5.436 4.867c2.99 2.677 8.964 7.183 13.275 10.014l7.839 5.146 7.608-.575c9.24-.699 10.071-1.36 7.403-5.882-1.125-1.907-3.203-8.147-4.619-13.868-2.841-11.482-8.495-25.933-16.419-41.96-6.289-12.721-6.436-17.351-.965-30.488 4.327-10.389 6.811-12.947 11.689-12.032 3.573.671 23.253 10.137 23.253 11.185 0 .295-2.565 5.103-5.699 10.685-9.179 16.348-8.655 14.205-5.845 23.902 7.657 26.424 21.074 51.525 28.586 53.484 2.657.692 15.607.348 50.708-1.346l12.25-.591v-2.724c0-1.497.705-7.414 1.567-13.149 1.632-10.85 1.359-16.213-1.215-23.926-.827-2.475-1.865-9.011-2.307-14.525-.669-8.339-1.918-13.427-7.425-30.258-3.641-11.128-6.659-21.016-6.706-21.975-.047-.958-.502-.392-1.011 1.258-.828 2.689.837 15.054 2.673 19.837.42 1.094-3.712 1.478-21.902 2.037-25.38.78-26.444.601-39.674-6.679-13.778-7.58-24.479-12.69-26.583-12.693-2.997-.003-3.619-1.045-2.052-3.437 2.657-4.054 3.785-13.815 1.825-15.775-.582-.582-1.204.133-1.644 1.887" fill-rule="evenodd"/>
<path fill="#767270" stroke="#767270" d="M234.5 58.626c-52.847 4.338-99.344 26.563-137.012 65.493-40.635 41.995-60.501 91.653-60.483 151.182.045 141.653 130.792 243.465 268.041 208.722 75.075-19.005 135.631-79.396 154.943-154.523 9.672-37.625 9.098-79.697-1.594-116.861C437.732 140.821 380.829 84.52 309.5 65.321c-20.552-5.531-53.423-8.466-75-6.695m-8 17.86C106.321 93.465 30.74 206.764 60.571 325.218c3.157 12.534 7.402 23.958 8.738 23.512 1.156-.385 7.509-20.407 10.703-33.73 1.624-6.774 2.245-14.389 3.059-37.5 1.347-38.242 2.911-45.517 12.005-55.849 9.994-11.354 25.685-13.623 53.639-7.759 36.87 7.734 76.918 6.589 100.758-2.881 15.198-6.038 31.391-7.776 42.118-4.522 9.979 3.027 21.841 1.309 24.436-3.54 1.135-2.12 1.059-2.18-1.669-1.337-9.91 3.062-20.876.084-29.108-7.904-5.1-4.949-5.305-7.295-1-11.461 7.248-7.014 17.846-9.505 28.584-6.72 12.389 3.213 13.403-.056 3.374-10.872-7.56-8.154-9.208-11.985-9.208-21.41 0-4.456.5-6.638 1.921-8.384l1.922-2.361 2.136 4.967c5.955 13.847 18.952 21.385 29.367 17.033 4.726-1.975 17.021-1.935 22.918.074 6.34 2.161 10.526.162 16.129-7.702 5.728-8.039 7.838-7.758 7.838 1.046 0 5.34-2.083 10.134-6.366 14.653l-2.91 3.071 5.569 5.751 5.57 5.75 6.203-1.539c9.672-2.399 16.703-.137 16.703 5.375 0 3.515-5.791 11.129-10.719 14.094-2.079 1.251-3.94 2.392-4.134 2.537-2.116 1.574 10.947 20.557 19.042 27.668 11.274 9.906 10.811 9.319 10.811 13.69 0 5.756-2.014 9.918-6.958 14.379-6.651 6.002-9.499 6.813-21.33 6.07-7.607-.477-12.178-.23-17.92.971-4.239.887-10.102 1.612-13.027 1.612-6.248 0-9.021 1.62-11.669 6.816-2.981 5.852-7.9 24.034-8.571 31.684-1.384 15.766-3.715 22.438-13.869 39.691-12.206 20.741-30.681 31.342-45.052 25.854l-2.896-1.107.57-8.719c.313-4.795 1.055-9.988 1.648-11.538 1.248-3.266.36-8.721-1.062-6.526-3.788 5.848-6.115 17.842-6.858 35.345-.521 12.3-1.483 21.424-3.036 28.811-2.059 9.79-2.181 11.901-1.291 22.336 1.134 13.315 1.258 13.481 9.821 13.112l6-.259.781-8.5c.911-9.921.189-21.793-1.891-31.08-.876-3.913-1.355-10.194-1.181-15.5l.291-8.92 7-.025c3.85-.014 8.984-.421 11.409-.904l4.41-.878-.652 8.404c-.358 4.622-1.105 9.975-1.659 11.896-1.355 4.698-1.28 22.633.122 29.208 2.664 12.487 7.505 19.149 14.649 20.159 2.047.29 8.972 1.304 15.389 2.254l11.668 1.728 6.819-4.421C415.506 405.359 450 341.108 450 274.5c0-96.827-69.291-179.912-164-196.65-15.139-2.676-45.32-3.368-59.5-1.364m132.319 119.015c-2.32 2.365 5.106 6.237 9.734 5.075 2.631-.66 2.912-1.294 1.538-3.463-.932-1.471-10.121-2.786-11.272-1.612M90.723 322.25c-.573 17.943-3.409 33.268-8.59 46.413l-1.993 5.055 5.016 7.829c8.293 12.943 14.008 19.911 14.951 18.226.858-1.532-.417-20.247-2.045-30.023-.571-3.432-.606-7.906-.087-11.099 2.248-13.812 2.276-25.83.082-35.651-2.132-9.544-5.028-17.989-6.171-17.996-.337-.002-.861 7.758-1.163 17.246m61.566-5.423c-.633 2.02-7.214 15.373-14.624 29.673-15.915 30.709-16.041 31.153-15.947 56 .087 23.069-.156 22.4 11.352 31.175 13.695 10.443 16.632 11.734 24.793 10.899 8.434-.862 9.218-1.642 6.461-6.432-1.192-2.071-3.289-8.311-4.66-13.866-2.925-11.852-7.705-24.166-15.812-40.738-6.585-13.461-6.933-15.826-3.814-25.927 4.648-15.046 8.421-19.428 15.133-17.574 2.759.761 20.476 9.342 21.687 10.503.197.189-2.875 5.997-6.828 12.907-8.235 14.397-8.102 12.205-1.856 30.553 7.177 21.086 18.511 41.62 24.841 45.008 2.321 1.242 61.897-.69 63.549-2.061.631-.524 1.45-4.439 1.819-8.7 1.941-22.413 1.94-22.481-.259-30.311-1.168-4.16-2.124-9.836-2.124-12.613 0-2.778-.459-7.472-1.021-10.432-1.619-8.536-14.232-45.853-15.28-45.205-1.19.736-.142 11.523 1.721 17.715.762 2.531 1.091 4.78.733 4.998-.359.219-11.086.555-23.838.749l-23.185.352-19.315-9.789c-10.623-5.383-20.076-9.771-21.006-9.75-2.679.062-2.783-1.12-.654-7.426 1.279-3.788 1.776-7.09 1.382-9.189-.866-4.617-1.913-4.785-3.248-.519" fill-rule="evenodd"/>
<path fill="#2a1706" stroke="#2a1706" d="M239 59.104C118.968 64.471 25.227 174.859 37.903 295.915 50.249 413.833 151.054 499.271 267 490.088 409.388 478.811 500.573 339.065 454.978 202c-17.085-51.362-55.953-95.788-105.862-121.001C314.419 63.471 282.642 57.152 239 59.104M225 76.61c-122.959 16.447-200.313 142-160.848 261.072 4.197 12.662 6.029 14.65 7.356 7.984.347-1.741 1.939-7.216 3.538-12.166 6.286-19.46 6.969-24.067 7.999-54 1.141-33.127 1.99-39.935 6.005-48.185 3.444-7.073 11.006-14.492 17.95-17.608 6.941-3.115 25.828-2.795 40.5.685 13.652 3.238 49.75 6.053 65.5 5.107 13.79-.828 26.659-3.545 37.064-7.824 15.184-6.245 30.183-7.716 42.664-4.186 10.429 2.951 21.528.887 23.434-4.358.804-2.212.679-2.321-1.9-1.648-10.924 2.85-19.629.697-28.089-6.946-5.513-4.98-5.947-6.834-2.622-11.192 5.395-7.074 18.584-10.808 27.949-7.913 13.401 4.144 15.283.321 5.137-10.434-9.205-9.758-12.847-23.812-7.789-30.059l1.848-2.282 2.503 5.467c6.393 13.963 19.231 20.937 30.147 16.376 4.666-1.95 14.893-1.915 21.589.073 7.742 2.3 11.584.132 19.62-11.067 2.868-3.998 4.445-2.546 4.445 4.093 0 6.234-2.506 12.08-6.537 15.251-3.129 2.462-2.664 3.657 3.92 10.069l4.538 4.419 5.455-1.308c9.646-2.314 17.624-.313 17.624 4.421 0 3.483-5.694 11.171-10.546 14.242-3.508 2.218-4.303 3.22-3.813 4.805 2.67 8.649 14.821 24.665 22.404 29.531 9.033 5.796 9.675 13.526 1.862 22.424-6.067 6.91-11.104 8.6-23.586 7.912-8.041-.443-12.801-.181-18.529 1.019-4.239.889-10.123 1.616-13.076 1.616-9.797 0-16.169 12.913-19.244 39-3.963 33.619-26.158 63.975-48.077 65.755-10.326.838-13.398-.788-13.38-7.083.008-2.844.656-7.889 1.439-11.211 1.27-5.384 1.789-12.461.914-12.461-.18 0-1.187 1.688-2.237 3.75-4.159 8.164-5.316 14.423-6.15 33.25-.545 12.289-1.518 21.674-2.9 27.953-2.18 9.904-2.485 16.989-1.22 28.37.902 8.124 1.652 8.78 9.639 8.436l6-.259.8-8c.973-9.737.13-23.971-1.883-31.787-.942-3.656-1.385-9.181-1.204-15l.287-9.213 7.5-.033c4.125-.018 9.254-.418 11.399-.889l3.899-.856-.709 8.73c-.389 4.802-1.193 9.928-1.786 11.39-1.793 4.423-1.182 24.709.973 32.281 4.46 15.671 5.767 16.586 27.844 19.492l13.121 1.727 4.56-2.673c64.39-37.734 102.32-123.05 89.216-200.669C429.447 134.972 331.722 62.335 225 76.61m135.25 118.421c-4.804 1.931.052 6.309 6.415 5.784 5.29-.436 5.797-3.306.944-5.334-4.016-1.678-4.266-1.693-7.359-.45M90.759 320.75c-.56 18.141-3.518 34.732-8.333 46.75l-2.404 6 3.239 5.219c6.396 10.306 15.258 22.272 16.239 21.926 1.271-.447.955-14.445-.575-25.478-.897-6.471-.864-12.015.147-24.819 1.256-15.906 1.223-16.871-.946-27.386-2.156-10.454-4.946-18.93-6.238-18.952-.336-.005-.844 7.528-1.129 16.74m62.273-6.402c-.018 1.016-6.802 15.191-15.076 31.5L122.913 375.5l-1.07 10c-.596 5.57-.807 16.423-.477 24.5l.594 14.5 4.62 4.253c8.589 7.906 22.114 16.247 26.346 16.247 12.719 0 14.965-1.652 11.141-8.193-1.064-1.819-3.115-8.032-4.558-13.807-2.712-10.849-9.577-28.101-17.158-43.119-5.876-11.639-5.713-15.72 1.22-30.577 5.151-11.038 7.654-11.475 22.528-3.932 4.729 2.398 9.171 4.551 9.872 4.785.857.286-1.058 4.516-5.849 12.922-3.917 6.874-7.122 13.275-7.122 14.226 0 6.297 13.495 40.009 20.542 51.315 6.423 10.304 8.577 11.623 18.763 11.481 25.885-.359 54.811-2.19 55.18-3.491.173-.611 1.088-7.203 2.034-14.651l1.72-13.541-2.514-9.959c-1.383-5.477-2.742-13.559-3.02-17.959-.602-9.51-13.606-51.5-15.949-51.5-1.235 0-.863 7.358.762 15.084.834 3.968 1.397 7.297 1.25 7.398-.148.102-9.718.73-21.268 1.396-24.467 1.411-24.915 1.334-40.213-6.977-14.802-8.041-20.43-10.786-24.384-11.891l-3.597-1.005 1.814-5.252c2.219-6.423 2.353-10.746.412-13.312-1.396-1.845-1.47-1.849-1.5-.093" fill-rule="evenodd"/>
</svg>